# xmcd
#
# Track frame offsets:
# 150
# 16544
# 36959
# 43381
# 61164
# 79416
# 83246
# 99004
# 121799
# 140274
# 160151
# 172771
# 182186
# 197099
# 217356
# 226521
# 248999
# 250134
# 268279
# 292556
# 311101
#
# Disc length: 4256 seconds
#
#
# Revision: 1
# Processed by: cddbd v1.5.2PL0 Copyright (c) Steve Scherf et al.
# Submitted via: FreeRIP 2.941 
#
DISCID=19109e15
DTITLE=David McCullough - David McCullough - 2005 - 1776 - [CD7]
DYEAR=2005
DGENRE=Blues
TTITLE0=David McCullough - 2005 - 1776 - [CD7]
TTITLE1=David McCullough - 2005 - 1776 - [CD7]
TTITLE2=David McCullough - 2005 - 1776 - [CD7]
TTITLE3=David McCullough - 2005 - 1776 - [CD7]
TTITLE4=David McCullough - 2005 - 1776 - [CD7]
TTITLE5=David McCullough - 2005 - 1776 - [CD7]
TTITLE6=David McCullough - 2005 - 1776 - [CD7]
TTITLE7=David McCullough - 2005 - 1776 - [CD7]
TTITLE8=David McCullough - 2005 - 1776 - [CD7]
TTITLE9=David McCullough - 2005 - 1776 - [CD7]
TTITLE10=David McCullough - 2005 - 1776 - [CD7]
TTITLE11=David McCullough - 2005 - 1776 - [CD7]
TTITLE12=David McCullough - 2005 - 1776 - [CD7]
TTITLE13=David McCullough - 2005 - 1776 - [CD7]
TTITLE14=David McCullough - 2005 - 1776 - [CD7]
TTITLE15=David McCullough - 2005 - 1776 - [CD7]
TTITLE16=David McCullough - 2005 - 1776 - [CD7]
TTITLE17=David McCullough - 2005 - 1776 - [CD7]
TTITLE18=David McCullough - 2005 - 1776 - [CD7]
TTITLE19=David McCullough - 2005 - 1776 - [CD7]
TTITLE20=1776 - Disc 7 - Track 21
EXTD=YEAR: 2005
EXTT0=
EXTT1=
EXTT2=
EXTT3=
EXTT4=
EXTT5=
EXTT6=
EXTT7=
EXTT8=
EXTT9=
EXTT10=
EXTT11=
EXTT12=
EXTT13=
EXTT14=
EXTT15=
EXTT16=
EXTT17=
EXTT18=
EXTT19=
EXTT20=
PLAYORDER=
